<svg width="432" height="270" fill="none" xmlns="http://www.w3.org/2000/svg"><mask id="a" style="mask-type:alpha" maskUnits="userSpaceOnUse" x="66" y="24" width="196" height="218"><path d="M75.932 63.408l81.395-37.347a16.001 16.001 0 0 1 13.345 0l81.396 37.347c5.684 2.608 9.37 8.334 9.142 14.583-4.005 109.827-71.552 152.212-91.627 162.418-3.562 1.811-7.604 1.811-11.166 0-20.076-10.206-87.622-52.591-91.627-162.418-.228-6.25 3.458-11.975 9.142-14.583z" fill="#fff"/></mask><g mask="url(#a)"><path d="M75.932 63.408l81.395-37.347a16.001 16.001 0 0 1 13.345 0l81.396 37.347c5.684 2.608 9.37 8.334 9.142 14.583-4.005 109.827-71.552 152.212-91.627 162.418-3.562 1.811-7.604 1.811-11.166 0-20.076-10.206-87.622-52.591-91.627-162.418-.228-6.25 3.458-11.975 9.142-14.583z" fill="#fff"/><path d="M250.708 62.784l-79.062-36.276a18.332 18.332 0 0 0-7.646-1.67v216.717c2.201 0 4.403-.528 6.434-1.583 20.967-10.892 86.23-53.27 90.718-160.51.3-7.16-3.931-13.69-10.444-16.678z" fill="#74C0FC"/><mask id="b" style="mask-type:alpha" maskUnits="userSpaceOnUse" x="54" y="25" width="110" height="218"><path fill="#C4C4C4" d="M54 25.291h110v217.708H54z"/></mask><g mask="url(#b)" fill="#74C0FC"><path d="M130.055 133h-16.466c-3.242 0-5.46 3.265-4.257 6.273l10.642 26.603c-12.157 9.061-20.14 23.384-20.14 39.684 0 5.5 4.445 9.94 9.928 9.94h42.78l-18.935-75.74c-1.432-2.091-2.578-4.383-3.552-6.76zm77.974 32.885l10.642-26.603c1.189-3.017-1.017-6.282-4.512-6.282h-16.466c-.966 2.384-2.133 4.663-3.555 6.766l-18.68 75.734h42.769c5.5 0 9.94-4.44 9.94-9.94 0-16.3-7.992-30.623-20.138-39.675zM180.5 133c6.073 0 11-4.87 11-10.886v-4.726c16.414-2.378 27.5-6.789 27.5-11.888 0-4.607-9.095-8.674-23.005-11.17-3.406-12.563-8.82-25.497-16.698-25.497-2.973 0-5.62 1.29-7.843 3.008a12.143 12.143 0 0 1-14.896 0c-2.211-1.719-4.847-3.008-7.826-3.008-7.878 0-13.263 12.936-16.672 25.49C118.118 96.813 109 100.887 109 105.5c0 5.087 11.078 9.516 27.5 11.896v4.733c0 6.001 4.927 10.871 11 10.871h3.532c4.715 0 8.677-2.977 10.207-7.159.441-1.177 1.501-2.008 2.761-2.008 1.261 0 2.322.827 2.754 2.008 1.285 4.18 5.496 7.159 10.223 7.159h3.523z"/><path opacity=".5" d="M153.697 160.5c-1.536 0-2.499 1.659-1.737 2.992l7.026 12.295c.275.481.338 1.055.173 1.585l-8.906 28.703 2.289 9.425L164 225.239l11.458-9.739 2.289-9.181-8.909-28.949a2.005 2.005 0 0 1 .175-1.581l7.027-12.297c.762-1.333-.201-2.992-1.736-2.992h-20.607zm46.626-44.716a123.09 123.09 0 0 1-8.823 1.604v4.732c0 6.01-4.927 10.88-11 10.88h-3.532c-4.715 0-8.677-2.976-10.206-7.159-.442-1.177-1.501-2.008-2.762-2.008-1.26 0-2.32.831-2.75 2.005-1.547 4.183-5.5 7.162-10.198 7.162h-3.532c-6.093 0-11.02-4.87-11.02-10.886v-4.726a122.295 122.295 0 0 1-8.817-1.604c-.112.916-.35 2.263-.35 3.466 0 20.25 16.417 36.667 36.409 36.667 19.992 0 36.925-16.415 36.925-36.667 0-1.203-.229-2.55-.344-3.466z"/></g><mask id="c" style="mask-type:alpha" maskUnits="userSpaceOnUse" x="164" y="25" width="110" height="218"><path fill="#C4C4C4" d="M164 25.291h110v217.708H164z"/></mask><g mask="url(#c)"><path d="M130.055 133h-16.466c-3.242 0-5.46 3.265-4.257 6.273l10.642 26.603c-12.157 9.061-20.14 23.384-20.14 39.684 0 5.5 4.445 9.94 9.928 9.94h42.78l-18.935-75.74c-1.432-2.091-2.578-4.383-3.552-6.76zm77.974 32.885l10.642-26.603c1.189-3.017-1.017-6.282-4.512-6.282h-16.466c-.966 2.384-2.133 4.663-3.555 6.766l-18.68 75.734h42.769c5.5 0 9.94-4.44 9.94-9.94 0-16.3-7.992-30.623-20.138-39.675zM180.5 133c6.073 0 11-4.87 11-10.886v-4.726c16.414-2.378 27.5-6.789 27.5-11.888 0-4.607-9.095-8.674-23.005-11.17-3.406-12.563-8.82-25.497-16.698-25.497-2.973 0-5.62 1.29-7.843 3.008a12.143 12.143 0 0 1-14.896 0c-2.211-1.719-4.847-3.008-7.826-3.008-7.878 0-13.263 12.936-16.672 25.49C118.118 96.813 109 100.887 109 105.5c0 5.087 11.078 9.516 27.5 11.896v4.733c0 6.001 4.927 10.871 11 10.871h3.532c4.715 0 8.677-2.977 10.207-7.159.441-1.177 1.501-2.008 2.761-2.008 1.261 0 2.322.827 2.754 2.008 1.285 4.18 5.496 7.159 10.223 7.159h3.523z" fill="#1C7ED6"/><path d="M150.25 160.5l9.167 16.042-9.164 29.533 2.289 9.425L164 225.239l11.458-9.739 2.289-9.181-9.164-29.777 9.167-16.042h-27.5zm50.073-44.716a123.09 123.09 0 0 1-8.823 1.604v4.732c0 6.01-4.927 10.88-11 10.88h-3.532c-4.715 0-8.677-2.976-10.206-7.159-.442-1.177-1.501-2.008-2.762-2.008-1.26 0-2.32.831-2.75 2.005-1.547 4.183-5.5 7.162-10.198 7.162h-3.532c-6.093 0-11.02-4.87-11.02-10.886v-4.726a122.295 122.295 0 0 1-8.817-1.604c-.112.916-.35 2.263-.35 3.466 0 20.25 16.417 36.667 36.409 36.667 19.992 0 36.925-16.415 36.925-36.667 0-1.203-.229-2.55-.344-3.466z" fill="#74C0FC"/></g><path fill-rule="evenodd" clip-rule="evenodd" d="M85.193 79.33c4.19 94.418 59.21 132.552 78.807 143.296 19.598-10.744 74.618-48.878 78.808-143.296L164 43.171 85.193 79.33zm71.162-52.822L77.292 62.784c-6.513 2.988-10.744 9.519-10.444 16.678 4.488 107.24 69.752 149.618 90.718 160.51a13.865 13.865 0 0 0 12.868 0c20.967-10.892 86.23-53.27 90.719-160.51.299-7.16-3.932-13.69-10.445-16.678l-79.062-36.276a18.334 18.334 0 0 0-15.291 0z" fill="#74C0FC"/><path d="M164 222.626c19.597-10.744 74.617-48.878 78.808-143.296L164 43.171V24.838c2.609 0 5.219.557 7.645 1.67l79.063 36.276c6.513 2.988 10.744 9.519 10.444 16.678-4.488 107.24-69.751 149.618-90.718 160.51a13.939 13.939 0 0 1-6.434 1.583v-18.929z" fill="#1C7ED6"/></g><path d="M263.667 221c35.898 0 65-29.101 65-65s-29.102-65-65-65H257c-35.899 0-65 29.101-65 65s29.101 65 65 65h6.667z" fill="#8991A6"/><path fill-rule="evenodd" clip-rule="evenodd" d="M299.958 207.53a65.381 65.381 0 0 0 11.884-11.878l44.831 39.009c4.881 4.882 4.881 12.796 0 17.678-4.882 4.881-12.797 4.881-17.678 0l-39.037-44.809z" fill="#193154"/><circle cx="257" cy="156" r="57" stroke="#C2C7D1" stroke-width="16"/><g clip-path="url(#clip0_2012_3501)"><circle cx="257" cy="156" r="51.667" fill="#fff"/><path d="M144.15 93.946l64.166-26.909a13.334 13.334 0 0 1 10.313 0l64.167 26.909c4.953 2.077 8.223 6.934 7.969 12.3-3.756 79.066-57.257 109.53-72.978 116.804-2.778 1.286-5.851 1.286-8.628 0-15.722-7.274-69.223-37.738-72.978-116.804-.255-5.366 3.015-10.223 7.969-12.3z" fill="url(#paint0_linear_2012_3501)"/><circle opacity=".3" cx="257" cy="156" r="51.667" fill="#63E6BE"/><path opacity=".8" d="M229.895 128.895c-12.52 12.519-14.569 31.544-6.149 46.193 0 0-7.162-24.505 10.338-42.004 17.499-17.5 42.004-10.338 42.004-10.338-14.65-8.42-33.674-6.371-46.193 6.149z" fill="#fff" stroke="#fff" stroke-width="4" stroke-linecap="round" stroke-linejoin="round"/></g><path d="M335.47 60.53l14.359 6.637a2.011 2.011 0 0 1 1.171 1.84c0 .78-.453 1.498-1.171 1.826L335.47 77.47l-6.637 14.359A2.009 2.009 0 0 1 327.006 93a2.013 2.013 0 0 1-1.839-1.171L318.53 77.47l-14.36-6.637a2.019 2.019 0 0 1 0-3.665l14.36-6.638 6.637-14.36a2.02 2.02 0 0 1 3.666 0l6.637 14.36z" fill="#FFD43B"/><path opacity=".5" d="M370.235 92.765l7.179 3.319c.359.163.586.522.586.92 0 .39-.227.749-.586.912l-7.179 3.319-3.319 7.179a1.002 1.002 0 0 1-.913.586c-.397 0-.756-.227-.919-.586l-3.319-7.179-7.18-3.319a1.009 1.009 0 0 1 0-1.833l7.18-3.318 3.319-7.18a1.008 1.008 0 0 1 1.832 0l3.319 7.18z" fill="#FFD43B"/><defs><linearGradient id="paint0_linear_2012_3501" x1="213.473" y1="66" x2="213.473" y2="224.014" gradientUnits="userSpaceOnUse"><stop stop-color="#1C7ED6"/><stop offset="1" stop-color="#1C7ED6" stop-opacity="0"/></linearGradient><clipPath id="clip0_2012_3501"><path d="M205.333 156c0-28.535 23.132-51.667 51.667-51.667s51.667 23.132 51.667 51.667-23.132 51.667-51.667 51.667-51.667-23.132-51.667-51.667z" fill="#fff"/></clipPath></defs></svg>